<svg viewBox="0 -12 511.99878 511" xmlns="http://www.w3.org/2000/svg"><path d="m354.488281 399.070312h45.679688c8.386719 0 15.210937-6.828124 15.210937-15.214843v-45.679688c0-8.386719-6.824218-15.210937-15.210937-15.210937h-45.679688c-8.386719 0-15.210937 6.824218-15.210937 15.210937v45.679688c0 8.386719 6.824218 15.214843 15.210937 15.214843zm-.210937-15.214843v-15.339844h15.550781v15.554687h-15.339844c-.117187 0-.210937-.097656-.210937-.214843zm45.890625.214843h-15.339844v-15.554687h15.550781v15.339844c0 .117187-.09375.214843-.210937.214843zm.210937-45.894531v15.339844h-15.550781v-15.550781h15.339844c.117187 0 .210937.09375.210937.210937zm-45.890625-.210937h15.339844v15.550781h-15.550781v-15.339844c0-.117187.09375-.210937.210937-.210937zm0 0"/><path d="m156.570312 322.964844h-45.675781c-8.390625 0-15.214843 6.824218-15.214843 15.210937v45.679688c0 8.386719 6.824218 15.214843 15.214843 15.214843h45.675781c8.390626 0 15.214844-6.828124 15.214844-15.214843v-45.679688c0-8.386719-6.824218-15.210937-15.214844-15.210937zm.214844 15.210937v15.339844h-15.550781v-15.550781h15.335937c.117188 0 .214844.09375.214844.210937zm-45.890625-.210937h15.339844v15.550781h-15.554687v-15.339844c0-.117187.097656-.210937.214843-.210937zm-.214843 45.890625v-15.339844h15.554687v15.554687h-15.339844c-.117187 0-.214843-.097656-.214843-.214843zm45.890624.214843h-15.335937v-15.554687h15.550781v15.339844c0 .117187-.097656.214843-.214844.214843zm0 0"/><path d="m139.042969 202.4375h45.675781c8.390625 0 15.214844-6.824219 15.214844-15.214844v-45.675781c0-8.390625-6.828125-15.214844-15.214844-15.214844h-45.675781c-8.390625 0-15.214844 6.828125-15.214844 15.214844v45.675781c0 8.390625 6.824219 15.214844 15.214844 15.214844zm-.214844-15.214844v-15.335937h15.550781v15.550781h-15.335937c-.117188 0-.214844-.097656-.214844-.214844zm45.890625.214844h-15.339844v-15.550781h15.554688v15.335937c0 .117188-.097656.214844-.214844.214844zm.214844-45.890625v15.339844h-15.554688v-15.554688h15.339844c.117188 0 .214844.097657.214844.214844zm-45.890625-.214844h15.335937v15.554688h-15.550781v-15.339844c0-.117187.097656-.214844.214844-.214844zm0 0"/><path d="m327.433594 202.4375h45.675781c8.386719 0 15.210937-6.824219 15.210937-15.214844v-45.675781c0-8.390625-6.824218-15.214844-15.210937-15.214844h-45.675781c-8.390625 0-15.214844 6.828125-15.214844 15.214844v45.675781c0 8.390625 6.824219 15.214844 15.214844 15.214844zm-.214844-15.214844v-15.335937h15.550781v15.550781h-15.335937c-.121094 0-.214844-.097656-.214844-.214844zm45.890625.214844h-15.339844v-15.550781h15.550781v15.335937c0 .117188-.09375.214844-.210937.214844zm.210937-45.890625v15.339844h-15.550781v-15.554688h15.339844c.117187 0 .210937.097657.210937.214844zm-45.886718-.214844h15.335937v15.554688h-15.550781v-15.339844c0-.117187.09375-.214844.214844-.214844zm0 0"/><path d="m233.238281 202.4375h45.675781c8.386719 0 15.210938-6.824219 15.210938-15.214844v-45.675781c0-8.390625-6.824219-15.214844-15.210938-15.214844h-45.675781c-8.390625 0-15.214843 6.828125-15.214843 15.214844v45.675781c0 8.390625 6.824218 15.214844 15.214843 15.214844zm-.214843-15.214844v-15.335937h15.550781v15.550781h-15.335938c-.121093 0-.214843-.097656-.214843-.214844zm45.890624.214844h-15.339843v-15.550781h15.550781v15.335937c0 .117188-.09375.214844-.210938.214844zm.210938-45.890625v15.339844h-15.550781v-15.554688h15.339843c.117188 0 .210938.097657.210938.214844zm-45.886719-.214844h15.335938v15.554688h-15.550781v-15.339844c0-.117187.09375-.214844.214843-.214844zm0 0"/><path d="m509.402344 276.5625c-3.132813-2.707031-7.871094-2.359375-10.578125.773438l-10.238281 11.851562c-.488282.566406-1.050782 1.046875-1.65625 1.457031-.007813-.007812-.015626-.011719-.023438-.015625-40.417969-25.480468-63.960938-67.140625-66.507812-71.800781-1.5625-2.863281-4.558594-4.640625-7.820313-4.640625h-.691406v-97.789062h23.476562.0625.046875c6.789063 0 13.230469-2.945313 17.667969-8.082032l10.234375-11.851562c2.707031-3.136719 2.363281-7.871094-.773438-10.578125-3.132812-2.707031-7.867187-2.363281-10.578124.773437l-10.234376 11.847656c-.488281.566407-1.050781 1.046876-1.660156 1.457032-.007812-.003906-.011718-.007813-.019531-.015625-40.425781-25.484375-63.960937-67.140625-66.511719-71.804688-.09375-.171875-.210937-.332031-.316406-.496093v-19.648438c0-4.144531-3.355469-7.5-7.5-7.5-4.140625 0-7.5 3.355469-7.5 7.5v15.511719h-151.847656c-4.144532 0-7.5 3.359375-7.5 7.5 0 4.144531 3.355468 7.5 7.5 7.5h155.796875c6.371093 10.964843 24.664062 39.574219 54.054687 62.886719h-320.574218c29.394531-23.316407 47.6875-51.925782 54.058593-62.886719h28.664063c4.140625 0 7.5-3.355469 7.5-7.5 0-4.140625-3.359375-7.5-7.5-7.5h-24.714844v-15.511719c0-4.144531-3.359375-7.5-7.5-7.5-4.144531 0-7.5 3.355469-7.5 7.5v19.648438c-.105469.164062-.222656.324218-.316406.496093-2.550782 4.667969-26.085938 46.320313-66.507813 71.804688-.007812.007812-.015625.011719-.023437.019531-.609375-.410156-1.171875-.890625-1.660156-1.457031l-10.238282-11.851563c-2.707031-3.132812-7.445312-3.480468-10.578125-.773437-3.136719 2.707031-3.480469 7.445312-.773437 10.578125l10.238281 11.851562c4.4375 5.136719 10.875 8.082032 17.664063 8.082032h.050781.0625 22.539062v97.808593c-3.167969.085938-6.054687 1.832031-7.574219 4.617188-2.550781 4.664062-26.085937 46.320312-66.507812 71.804687-.007812.003906-.015625.011719-.023438.015625-.609374-.410156-1.171874-.890625-1.660156-1.457031l-10.234375-11.851562c-2.707031-3.132813-7.445312-3.480469-10.578125-.773438-3.136718 2.710938-3.480468 7.445312-.773437 10.578125l10.234375 11.851563c4.4375 5.140624 10.878906 8.085937 17.667968 8.085937h.050782.058594 24.683593v117.242187h-19.25c-10.164062 0-18.433593 8.265626-18.433593 18.429688v26.515625c0 10.164063 8.269531 18.433594 18.433593 18.433594h440.523438c10.160156 0 18.429687-8.269531 18.429687-18.433594v-26.515625c0-10.164062-8.269531-18.429688-18.429687-18.429688h-19.25v-117.242187h25.617187c.023438 0 .042969-.003906.0625-.003906.015625 0 .03125.003906.050782.003906 6.789062 0 13.226562-2.949219 17.664062-8.085937l10.234375-11.851563c2.710937-3.132813 2.363281-7.871094-.769531-10.578125zm-112.515625-160.164062v97.789062h-282.714844v-97.789062zm82.335937 326.351562v26.515625c0 1.894531-1.539062 3.433594-3.429687 3.433594h-440.523438c-1.890625 0-3.433593-1.542969-3.433593-3.433594v-26.515625c0-1.890625 1.542968-3.429688 3.433593-3.429688h440.523438c1.890625 0 3.429687 1.539063 3.429687 3.429688zm-184.675781-65.769531v47.339843h-31.515625v-85.625c17.9375 3.507813 31.515625 19.335938 31.515625 38.285157zm-46.515625 47.339843h-31.519531v-47.339843c0-18.949219 13.582031-34.777344 31.519531-38.285157zm86.039062-132.242187c-4.144531 0-7.5 3.355469-7.5 7.5 0 4.140625 3.355469 7.5 7.5 7.5h107.472657v117.242187h-131.996094v-47.339843c0-29.785157-24.230469-54.015625-54.015625-54.015625s-54.015625 24.230468-54.015625 54.015625v47.339843h-131.996094v-117.242187h236.550781c4.144532 0 7.5-3.359375 7.5-7.5 0-4.144531-3.355468-7.5-7.5-7.5h-257.15625c29.386719-23.3125 47.679688-51.917969 54.054688-62.890625h306.058594c6.375 10.964844 24.667968 39.574219 54.058594 62.890625zm0 0"/></svg>